<?xml version="1.0" encoding="UTF-8"?>
<svg id="Layer_2" data-name="Layer 2" xmlns="http://www.w3.org/2000/svg" width="100" height="100" viewBox="0 0 429.07 406">
<circle cx="50" cy="50" r="20" fill="blue">
    <animate attributeName="cy" values="50;80;50" dur="1s" keyTimes="0;0.5;1" repeatCount="indefinite" />
  </circle>
  <circle cx="50" cy="50" r="20" fill="blue">
    <animate attributeName="transform" type="rotate" from="0 50 50" to="360 50 50" dur="2s" repeatCount="indefinite" />
    <animate attributeName="fill" values="blue;red;blue" dur="2s" repeatCount="indefinite" />
  </circle>
  <defs>
    <style>
      .cls-1 {
        fill: #f03;
        stroke-width: 0px;
      }
    </style>
  </defs>
  <g id="Layer_1-2" data-name="Layer 1">
    <path id="Icon_awesome-football-ball" data-name="Icon awesome-football-ball" class="cls-1" d="m416.53,42.81c-4.15-14.9-16.52-26.6-32.27-30.61-29.67-7.45-60.08-11.54-90.66-12.2l135.47,128.35c-.62-28.92-4.84-57.65-12.54-85.54h0ZM12.54,363.19c4.15,14.9,16.52,26.6,32.27,30.61,29.67,7.45,60.08,11.54,90.66,12.2L0,277.65c.62,28.92,4.84,57.65,12.54,85.54ZM3.63,225.43l187.03,177.3c114.62-15.88,215.23-97.16,234.87-222.15L238.41,3.27C123.79,19.15,23.18,100.44,3.63,225.43Zm274.49-101.17c2.76-2.54,7.01-2.54,9.77,0l9.77,9.25c2.55,2.38,2.69,6.38.31,8.94-.1.11-.21.21-.31.31l-24.48,23.17,24.48,23.17c2.55,2.38,2.69,6.38.31,8.94-.1.11-.21.21-.31.31l-9.77,9.25c-2.76,2.54-7.01,2.54-9.77,0l-24.48-23.17-19.55,18.58,24.48,23.17c2.55,2.38,2.69,6.38.31,8.94-.1.11-.21.21-.31.31l-9.77,9.25c-2.76,2.54-7.01,2.54-9.77,0l-24.48-23.17-19.55,18.5,24.48,23.17c2.55,2.38,2.69,6.38.31,8.94-.1.11-.21.21-.31.31l-9.77,9.25c-2.76,2.54-7.01,2.54-9.77,0l-24.48-23.17-24.48,23.17c-2.76,2.54-7.01,2.54-9.77,0l-9.77-9.25c-2.55-2.38-2.69-6.38-.31-8.94.1-.11.21-.21.31-.31l24.48-23.17-24.49-23.08c-2.55-2.38-2.69-6.38-.31-8.94.1-.11.21-.21.31-.31l9.77-9.25c2.76-2.54,7.01-2.54,9.77,0l24.48,23.17,19.55-18.5-24.48-23.17c-2.55-2.38-2.69-6.38-.31-8.94.1-.11.21-.21.31-.31l9.77-9.25c2.76-2.54,7.01-2.54,9.77,0l24.48,23.17,19.55-18.5-24.48-23.17c-2.55-2.38-2.69-6.38-.31-8.94.1-.11.21-.21.31-.31l9.77-9.25c2.76-2.54,7.01-2.54,9.77,0l24.48,23.17,24.49-23.33Z"/>
  </g>
</svg>