<svg id="Layer_2" data-name="Layer 2" xmlns="http://www.w3.org/2000/svg" width="150" height="150" align="center" viewBox="0 0 598.29 493.23">
  <defs>
    <style>
      .cls-1 {
        fill: #669;
        stroke-width: 0px;
      }
      .rotate-and-color {
        transition: fill 0.3s ease, transform 0.3s ease;
      }
      .rotate-and-color:hover {
        animation: rotateAndColor 4s linear infinite;
        fill: #ff7f50; 
      }
      @keyframes rotateAndColor {
        0% {
          transform: rotate(0deg);
          fill: #669;
        }
        50% {
          transform: rotate(180deg);
          fill: #ff7f50; 
        }
        100% {
          transform: rotate(360deg);
          fill: #669;
        }
      }
    </style>
  </defs>
  <g id="Layer_1-2" data-name="Layer 1">
    <path id="Icon_awesome-bath" data-name="Icon awesome-bath" class="cls-1 rotate-and-color" d="m570.24,246.62H93.48V88.08c0-19.43,16.77-35.23,37.39-35.23,12.59-.11,24.41,6.03,31.57,16.38-19.27,27.75-17.16,65.59,7.99,91.42-4.84,5.04-4.68,13.05.36,17.89.07.07.14.13.21.2l13.22,12.46c5.6,5.16,14.23,5.16,19.83,0l111.04-104.62c5.16-4.73,5.5-12.75.77-17.91-.25-.27-.5-.53-.77-.77l-13.22-12.46c-5.37-4.94-13.56-5.17-19.2-.54-20.97-18.13-49.42-23.59-74.99-16.92C190.8,15.05,162.67,0,130.87,0,79.33,0,37.39,39.51,37.39,88.08v158.54h-9.35c-15.49,0-28.05,11.83-28.05,26.42v17.61c0,14.59,12.56,26.42,28.05,26.42h9.35v35.23c0,31.3,14.44,59.42,37.39,78.77v35.73c0,14.59,12.56,26.42,28.04,26.42h18.7c15.49,0,28.04-11.83,28.04-26.42v-8.81h299.14v8.81c0,14.59,12.56,26.42,28.05,26.42h18.7c15.49,0,28.04-11.83,28.04-26.42v-35.73c22.95-19.35,37.39-47.47,37.39-78.77v-35.23h9.35c15.49,0,28.04-11.83,28.04-26.42v-17.62c0-14.59-12.56-26.42-28.05-26.42Z"/>
  </g>
</svg>

