<?xml version="1.0" encoding="UTF-8"?>
<svg id="Layer_2" data-name="Layer 2" xmlns="http://www.w3.org/2000/svg" viewBox="0 0 566 512">
  <defs>
    <style>
      .cls-1, .cls-2 {
        fill: #f93;
      }

      .cls-1, .cls-3 {
        stroke: #000;
      }

      .cls-4, .cls-2, .cls-5 {
        stroke-width: 0px;
      }

      .cls-3 {
        fill: #f90;
      }

      .cls-5 {
        fill: #39f;
      }
      .cls-1:hover {
        fill: #ffcc00; 
      }
    </style>
  </defs>
  <g id="Layer_1-2" data-name="Layer 1">
    <g>
      <g>
        <path class="cls-5" d="m249,511.5c-66.37,0-128.78-26.58-175.71-74.83C26.35,388.41.5,324.25.5,256S26.35,123.59,73.29,75.33C120.22,27.07,182.63.5,249,.5s128.78,26.57,175.71,74.83c46.94,48.26,72.79,112.42,72.79,180.67s-25.85,132.41-72.79,180.67c-46.93,48.25-109.34,74.83-175.71,74.83Z"/>
        <path class="cls-2" d="m249,1c33.48,0,65.95,6.74,96.52,20.03,29.53,12.84,56.05,31.23,78.83,54.64,22.78,23.42,40.66,50.69,53.15,81.06,12.93,31.44,19.49,64.84,19.49,99.27s-6.56,67.83-19.49,99.27c-12.49,30.37-30.38,57.64-53.15,81.06-22.78,23.42-49.3,41.8-78.83,54.64-30.57,13.29-63.05,20.03-96.52,20.03s-65.95-6.74-96.52-20.03c-29.53-12.84-56.05-31.23-78.83-54.64-22.78-23.42-40.66-50.69-53.15-81.06C7.56,323.83,1,290.43,1,256s6.56-67.83,19.49-99.27c12.49-30.37,30.38-57.64,53.15-81.06,22.78-23.42,49.3-41.8,78.83-54.64C183.05,7.74,215.52,1,249,1m0-1C111.48,0,0,114.62,0,256s111.48,256,249,256,249-114.62,249-256S386.52,0,249,0h0Z"/>
      </g>
      <g>
        <path class="cls-1" d="m102.3,247.36c-3.39,0-7.02-.24-10.77-.72-3.76-.48-7.73-1.27-11.82-2.35l-.82-.22-3.97-102.98,1.05-.12c1.77-.2,3.53-.36,5.23-.48,1.72-.12,3.4-.18,4.99-.18,4.58,0,8.89.46,12.82,1.36,3.95.91,7.62,2.32,10.91,4.18,4.24,2.38,7.46,5.38,9.59,8.91,2.14,3.55,3.22,7.71,3.22,12.37,0,2.03-.23,4.12-.69,6.21-.37,1.7-.92,3.43-1.62,5.15,5.95,3.01,10.85,7.7,14.59,13.94,3.95,6.61,5.96,13.81,5.96,21.38,0,5.57-1.04,10.57-3.08,14.87-2.05,4.31-5.13,8.01-9.18,11.01-3.45,2.57-7.42,4.51-11.81,5.77-4.36,1.25-9.27,1.89-14.6,1.89Zm10.41-14.24c-.96,0-1.67.24-2.11.71-.44.47-.66,1.24-.66,2.29s.22,1.88.66,2.35c.44.47,1.15.71,2.11.71s1.73-.24,2.16-.71c.44-.47.66-1.26.66-2.35s-.22-1.82-.66-2.29c-.44-.47-1.16-.71-2.16-.71Zm-22.56,1.03c3.59-.26,6.98-1.05,10.1-2.35,3.49-1.45,6.78-3.55,9.78-6.23,3.18-2.85,5.58-6.09,7.13-9.63,1.55-3.55,2.33-7.49,2.33-11.73,0-3.38-.58-6.49-1.74-9.25-1.03-2.47-2.55-4.77-4.52-6.84-2.79,2.56-5.86,4.74-9.14,6.48-3.35,1.78-7.02,3.13-10.92,4.03l-3.04,35.52Zm33.74-11.32c-1.12,0-2.03.41-2.79,1.24-.76.84-1.13,1.81-1.13,2.95,0,1.22.37,2.21,1.12,3.03.75.82,1.67,1.22,2.79,1.22s2.04-.4,2.79-1.22c.76-.82,1.12-1.81,1.12-3.03,0-1.15-.37-2.11-1.13-2.95-.75-.83-1.67-1.24-2.79-1.24Zm5.2-12.73c-1,0-1.73.24-2.16.71-.44.47-.66,1.24-.66,2.29s.22,1.86.65,2.31c.44.46,1.17.7,2.18.7s1.72-.23,2.14-.68c.42-.45.63-1.23.63-2.32s-.22-1.83-.64-2.3c-.42-.47-1.13-.7-2.13-.7Zm-35.1-21.21c2.3-.91,4.36-1.96,6.15-3.14,2.01-1.33,3.69-2.83,4.99-4.48l-2.33-29.51c-.35-.29-.93-.67-1.9-1.1-.86-.39-1.92-.77-3.16-1.15l-3.74,39.39Zm-1.64,38.72c1.69-5.26,3.79-10.55,6.24-15.72,2.44-5.16,5.3-10.34,8.5-15.4l.58-.92,6.79,4.11-.88,1.13c-3.27,4.22-6.27,8.68-8.9,13.26-2.63,4.57-4.99,9.39-7.01,14.32l-.29.7-5.58.2.54-1.68Z"/>
        <path class="cls-1" d="m139.85,213.82c0,5.4-.99,10.17-2.96,14.32-1.97,4.15-4.91,7.67-8.81,10.57-3.36,2.5-7.18,4.36-11.47,5.59-4.29,1.23-9.06,1.85-14.31,1.85-3.36,0-6.91-.24-10.64-.71-3.73-.48-7.62-1.25-11.68-2.32l-3.89-100.92c1.76-.2,3.49-.36,5.19-.48s3.34-.18,4.92-.18c4.52,0,8.72.45,12.59,1.34,3.87.89,7.41,2.25,10.62,4.07,4.09,2.3,7.14,5.13,9.17,8.49,2.03,3.37,3.04,7.27,3.04,11.7,0,1.94-.22,3.92-.66,5.92s-1.11,4.02-2.03,6.04c6.24,2.89,11.29,7.56,15.15,14,3.85,6.44,5.78,13.35,5.78,20.72Zm-19.23-9.61c0-3.57-.61-6.82-1.84-9.76-1.23-2.93-3.07-5.59-5.52-7.97-2.93,2.82-6.15,5.16-9.66,7.03-3.51,1.87-7.34,3.23-11.47,4.11l-3.23,37.82c4.21-.16,8.12-.99,11.74-2.5,3.62-1.51,6.99-3.65,10.1-6.43,3.33-2.97,5.81-6.32,7.43-10.05,1.63-3.73,2.44-7.81,2.44-12.25Zm-14.35-22.54l-2.41-30.5c-.51-.55-1.36-1.1-2.55-1.63-1.19-.54-2.71-1.06-4.57-1.58l-4.05,42.7c3.07-1.07,5.74-2.36,8.02-3.87,2.28-1.51,4.14-3.22,5.56-5.12Zm6.44,18.36c-3.32,4.29-6.32,8.75-8.99,13.4s-5.03,9.47-7.08,14.47l-3.24.12c1.68-5.24,3.74-10.43,6.17-15.57,2.43-5.14,5.24-10.23,8.42-15.27l4.71,2.85Zm3.94,36.1c0-1.39-.33-2.44-.99-3.15s-1.64-1.07-2.96-1.07-2.25.36-2.9,1.07-.99,1.77-.99,3.15.33,2.5.99,3.21,1.62,1.07,2.9,1.07,2.3-.36,2.96-1.07.99-1.78.99-3.21Zm12.27-9.1c0-1.47-.48-2.74-1.45-3.81-.97-1.07-2.16-1.61-3.59-1.61s-2.62.54-3.59,1.61c-.97,1.07-1.45,2.34-1.45,3.81,0,1.55.48,2.85,1.45,3.9.97,1.05,2.16,1.58,3.59,1.58s2.62-.52,3.59-1.58c.97-1.05,1.45-2.35,1.45-3.9Zm4.05-13.92c0-1.39-.32-2.44-.96-3.15-.64-.71-1.62-1.07-2.93-1.07s-2.3.36-2.96,1.07-.99,1.77-.99,3.15.33,2.49.99,3.18c.66.69,1.64,1.04,2.96,1.04s2.29-.35,2.93-1.04c.64-.69.96-1.75.96-3.18Z"/>
        <path class="cls-1" d="m152.92,244.52c-.33-3.97-.58-8.08-.74-12.22-.16-4.14-.25-8.47-.25-12.87,0-11.01.52-22.81,1.54-35.08,1.02-12.26,2.57-25.32,4.61-38.8l.18-1.21,24.61,4.56-.31,1.29c-2.5,10.32-4.63,19.41-6.32,27-1.69,7.58-2.96,13.87-3.79,18.7-1.3,7.66-2.32,15.5-3.03,23.32-.71,7.82-1.12,15.76-1.23,23.62v1.07s-15.17,1.87-15.17,1.87l-.1-1.24Zm9.74-52.12c.86-5.03,2.02-9.98,3.46-14.74,1.51-5,3.36-9.93,5.5-14.67l-.54-.75c-2.19,3.97-4.21,8.32-6.01,12.94-1.92,4.92-3.66,10.28-5.18,15.93l2.78,1.29Z"/>
        <path class="cls-1" d="m181.48,149.88c-2.52,10.38-4.63,19.39-6.33,27.02-1.7,7.63-2.97,13.88-3.81,18.76-1.31,7.73-2.33,15.54-3.04,23.42-.71,7.89-1.12,15.8-1.23,23.72l-13.04,1.6c-.33-3.96-.58-8.02-.74-12.16-.16-4.14-.25-8.42-.25-12.82,0-11.02.51-22.68,1.53-34.97,1.02-12.29,2.56-25.2,4.6-38.72l22.29,4.13Zm-8.54,12.96l-1.97-2.74c-2.56,4.44-4.87,9.31-6.93,14.6-2.06,5.29-3.9,10.99-5.5,17.1l4.98,2.32c.88-5.51,2.1-10.87,3.67-16.09,1.57-5.21,3.49-10.28,5.75-15.19Z"/>
        <path class="cls-1" d="m195.62,197.84l-7.6-.65.67-12.47,7.84-.3.57-8.88-8.15-.65.68-12.37,8.27.3.53-9.43-8.44-1.01.14-11.62,33.77,2.63-15.47,88.91.82-.04c.47-.02.96-.04,1.49-.04,1.17,0,2.5.06,3.97.19,2.08.18,4.46.39,7.12.63,2.87.28,5.35.49,7.37.62,2.01.14,3.66.21,4.91.21,5.55,0,9.73-.84,12.43-2.49,2.53-1.55,3.76-3.82,3.76-6.95,0-1.09-.14-2.29-.41-3.57-.28-1.3-.7-2.74-1.26-4.26l-.37-1,5.96-3.54.54,1.06c1.52,2.99,2.69,5.8,3.45,8.37.78,2.61,1.18,5.06,1.18,7.28,0,3.67-1.26,6.8-3.76,9.29-2.4,2.4-5.98,4.2-10.64,5.35-2.63.64-6.33,1.19-11,1.63-4.65.44-10.39.74-17.05.9-6.06.16-11.08.43-14.91.8-3.76.36-6.45.89-7.98,1.55l-1.66.72,3.22-51.16Zm37.21,15.41c-2.2,0-4.11-.87-5.67-2.59-1.56-1.71-2.35-3.77-2.35-6.12s.81-4.28,2.39-5.96c1.58-1.67,3.47-2.52,5.63-2.52s4,.85,5.57,2.52c1.59,1.68,2.39,3.68,2.39,5.96s-.79,4.4-2.35,6.12c-1.56,1.72-3.45,2.59-5.62,2.59Z"/>
        <path class="cls-1" d="m258.27,228.76c0,3.33-1.13,6.13-3.4,8.4-2.26,2.26-5.64,3.95-10.13,5.06-2.59.64-6.21,1.17-10.85,1.61-4.64.44-10.3.74-16.98.89-6.1.16-11.09.43-14.98.8-3.89.38-6.66.92-8.3,1.64l3.18-50.43-7.61-.65.55-10.17,7.83-.3.71-11.18-8.16-.65.55-9.99,8.27.3.66-11.78-8.49-1.01.11-9.22,31.33,2.44-15.5,89.09,2.25-.12c1.46-.08,3.23-.03,5.31.15s4.45.39,7.12.62c2.88.28,5.35.49,7.39.62,2.04.14,3.71.21,4.98.21,5.77,0,10.1-.88,12.98-2.65,2.88-1.77,4.33-4.44,4.33-8.01,0-1.19-.15-2.47-.44-3.84-.29-1.37-.73-2.85-1.31-4.44l4.11-2.44c1.5,2.94,2.62,5.65,3.37,8.15.75,2.5,1.12,4.8,1.12,6.91Zm-18.6-24.22c0,2.02-.68,3.78-2.03,5.26-1.35,1.49-2.96,2.23-4.82,2.23s-3.52-.74-4.87-2.23c-1.35-1.49-2.03-3.24-2.03-5.26s.68-3.64,2.05-5.08c1.37-1.45,2.99-2.17,4.85-2.17s3.42.72,4.79,2.17c1.37,1.45,2.05,3.14,2.05,5.08Z"/>
        <path class="cls-1" d="m272.36,197.84l-7.6-.65.67-12.47,7.84-.3.57-8.88-8.15-.65.68-12.37,8.27.3.53-9.43-8.44-1.01.14-11.62,33.77,2.63-15.47,88.91.82-.04c.47-.02.96-.04,1.49-.04,1.17,0,2.5.06,3.97.19,2.08.18,4.46.39,7.12.63,2.87.28,5.35.49,7.37.62,2.01.14,3.66.21,4.91.21,5.55,0,9.73-.84,12.43-2.49,2.53-1.55,3.76-3.82,3.76-6.95,0-1.09-.14-2.29-.41-3.57-.28-1.3-.7-2.74-1.26-4.26l-.37-1,5.96-3.54.54,1.06c1.52,2.99,2.69,5.8,3.45,8.37.78,2.61,1.18,5.06,1.18,7.28,0,3.67-1.26,6.8-3.76,9.29-2.4,2.4-5.98,4.2-10.64,5.35-2.63.64-6.33,1.19-11,1.63-4.65.44-10.39.74-17.05.9-6.06.16-11.08.43-14.91.8-3.76.36-6.45.89-7.98,1.55l-1.66.72,3.22-51.16Zm37.21,15.41c-2.2,0-4.11-.87-5.67-2.59-1.56-1.71-2.35-3.77-2.35-6.12s.81-4.28,2.39-5.96c1.58-1.67,3.47-2.52,5.63-2.52s4,.85,5.57,2.52c1.59,1.68,2.39,3.68,2.39,5.96s-.79,4.4-2.35,6.12c-1.56,1.72-3.45,2.59-5.62,2.59Z"/>
        <path class="cls-1" d="m335.01,228.76c0,3.33-1.13,6.13-3.4,8.4-2.26,2.26-5.64,3.95-10.13,5.06-2.59.64-6.21,1.17-10.85,1.61-4.64.44-10.3.74-16.98.89-6.1.16-11.09.43-14.98.8-3.89.38-6.66.92-8.3,1.64l3.18-50.43-7.61-.65.55-10.17,7.83-.3.71-11.18-8.16-.65.55-9.99,8.27.3.66-11.78-8.49-1.01.11-9.22,31.33,2.44-15.5,89.09,2.25-.12c1.46-.08,3.23-.03,5.31.15s4.45.39,7.12.62c2.88.28,5.35.49,7.39.62,2.04.14,3.71.21,4.98.21,5.77,0,10.1-.88,12.98-2.65,2.88-1.77,4.33-4.44,4.33-8.01,0-1.19-.15-2.47-.44-3.84-.29-1.37-.73-2.85-1.31-4.44l4.11-2.44c1.5,2.94,2.62,5.65,3.37,8.15.75,2.5,1.12,4.8,1.12,6.91Zm-18.6-24.22c0,2.02-.68,3.78-2.03,5.26-1.35,1.49-2.96,2.23-4.82,2.23s-3.52-.74-4.87-2.23c-1.35-1.49-2.03-3.24-2.03-5.26s.68-3.64,2.05-5.08c1.37-1.45,2.99-2.17,4.85-2.17s3.42.72,4.79,2.17c1.37,1.45,2.05,3.14,2.05,5.08Z"/>
        <path class="cls-1" d="m366.44,193.1l-24.03-44.13,21.59-9.08,14.74,41.56c2.16-6.19,4.18-11.59,6.02-16.1,2.14-5.26,4.17-9.52,6.02-12.65,3.53-5.99,7.47-10.56,11.7-13.59,4.29-3.07,8.99-4.63,13.96-4.63h.84l1.73,6.37-1.3.19c-3.35.49-6.39,1.76-9.06,3.79-1.76,1.34-3.4,3.05-4.9,5.12.64-.27,1.26-.5,1.85-.7,1.72-.57,3.26-.86,4.57-.86.62,0,1.37.05,2.23.16.83.1,1.78.23,2.85.39l1.33.2-2.12,7.07h-1.8c-5.3,0-10.19,2.46-14.52,7.33-4.44,4.98-8.43,12.72-11.85,23.01-1.01,3.05-1.77,5.51-2.28,7.31-.68,2.42-.77,3.02-.78,3.14-.69,15.88-1.4,31.81-2.13,47.73l-.04.93-11.48,2.66-3.14-55.24Zm-7.13,7.48c-1.52,0-2.7-.46-3.52-1.38-.81-.91-1.22-2.19-1.22-3.82s.41-2.92,1.23-3.8c.82-.89,2-1.34,3.5-1.34s2.69.45,3.52,1.33c.84.89,1.27,2.17,1.27,3.82s-.42,2.93-1.26,3.83c-.84.91-2.02,1.37-3.53,1.37Zm-6.74-12.13c-1.47,0-2.64-.46-3.48-1.37-.83-.91-1.26-2.22-1.26-3.89s.42-2.87,1.26-3.78c.83-.91,2-1.37,3.48-1.37,1.55,0,2.75.46,3.57,1.38.81.91,1.22,2.17,1.22,3.76,0,1.67-.41,2.98-1.22,3.88-.82.92-2.02,1.38-3.57,1.38Zm-6.41-12.31c-1.47,0-2.63-.45-3.47-1.33-.84-.89-1.27-2.17-1.27-3.82s.42-2.99,1.26-3.89c.83-.91,2-1.37,3.48-1.37,1.56,0,2.75.47,3.55,1.39.78.91,1.18,2.21,1.18,3.87s-.4,2.9-1.19,3.79c-.8.9-1.99,1.35-3.54,1.35Zm-5.7-11.72c-1.51,0-2.69-.45-3.5-1.34-.82-.89-1.23-2.17-1.23-3.8s.41-2.92,1.23-3.8c.82-.89,2-1.34,3.5-1.34s2.69.45,3.5,1.34c.82.89,1.23,2.17,1.23,3.8s-.41,2.92-1.23,3.8c-.82.89-2,1.34-3.5,1.34Z"/>
        <path class="cls-1" d="m344.07,159.28c0,1.31-.3,2.29-.9,2.94s-1.51.98-2.71.98-2.11-.33-2.71-.98-.9-1.64-.9-2.94.3-2.29.9-2.94,1.51-.98,2.71-.98,2.11.33,2.71.98.9,1.64.9,2.94Zm5.7,11.72c0,1.31-.29,2.29-.88,2.94-.58.65-1.5.98-2.74.98-1.17,0-2.06-.33-2.68-.98-.62-.65-.93-1.64-.93-2.94s.31-2.36.93-3.03c.62-.67,1.52-1.01,2.68-1.01,1.24,0,2.15.34,2.74,1.01.58.67.88,1.69.88,3.03Zm67.78-31.16c-3.54.51-6.73,1.85-9.56,4-2.83,2.15-5.32,5.17-7.48,9.05,1.97-1.11,3.77-1.93,5.4-2.47,1.62-.54,3.04-.8,4.25-.8.58,0,1.29.05,2.11.15s1.76.23,2.82.39l-1.45,4.84h-.98c-5.65,0-10.76,2.57-15.33,7.7-4.57,5.13-8.61,12.95-12.1,23.45-1.02,3.09-1.78,5.55-2.3,7.37-.51,1.82-.78,2.95-.82,3.39-.69,15.93-1.4,31.86-2.13,47.78l-9.37,2.17-3.07-54.12-23.49-43.15,19.31-8.12,15.39,43.41c2.55-7.45,4.89-13.8,7.03-19.03,2.13-5.23,4.11-9.4,5.93-12.49,3.46-5.87,7.26-10.28,11.38-13.23,4.12-2.95,8.57-4.43,13.35-4.43l1.12,4.13Zm-61.32,43.35c0,1.35-.3,2.36-.9,3.03-.6.67-1.52,1.01-2.77,1.01-1.17,0-2.06-.34-2.68-1.01-.62-.67-.93-1.68-.93-3.03,0-1.27.31-2.24.93-2.91.62-.67,1.52-1.01,2.68-1.01,1.24,0,2.16.34,2.77,1.01.6.67.9,1.65.9,2.91Zm6.74,12.19c0,1.31-.31,2.3-.93,2.97-.62.67-1.53,1.01-2.74,1.01s-2.11-.34-2.71-1.01c-.6-.67-.9-1.67-.9-2.97s.3-2.29.9-2.94,1.51-.98,2.71-.98,2.12.33,2.74.98c.62.65.93,1.64.93,2.94Z"/>
      </g>
      <text/>
      <g id="_Beer_" data-name="&amp;lt;Beer&amp;gt;">
        <path class="cls-3" d="m194.85,390.28c-3.59,0-7.43-.24-11.4-.72-3.98-.48-8.18-1.26-12.5-2.32l-1.72-.42-4.23-102.97,2.19-.23c1.88-.2,3.74-.36,5.52-.47,1.82-.12,3.6-.18,5.29-.18,4.87,0,9.46.46,13.65,1.36,4.24.91,8.18,2.33,11.7,4.21,4.61,2.43,8.13,5.5,10.46,9.14,2.36,3.68,3.56,7.98,3.56,12.78,0,2.08-.25,4.22-.75,6.36-.32,1.39-.77,2.79-1.32,4.2,5.96,3.05,10.91,7.62,14.73,13.6,4.26,6.68,6.42,13.95,6.42,21.61,0,5.65-1.13,10.74-3.35,15.13-2.23,4.4-5.59,8.18-9.98,11.24-3.72,2.59-8,4.55-12.72,5.82-4.66,1.25-9.89,1.89-15.57,1.89Zm10.88-13.96c-.39,0-1.08.05-1.38.35-.22.23-.34.72-.34,1.4s.13,1.24.34,1.46c.3.3.99.35,1.38.35.69,0,1.22-.13,1.43-.35.22-.22.34-.75.34-1.46s-.12-1.18-.34-1.4c-.22-.22-.74-.35-1.43-.35Zm-22.3-1.49c3.13-.33,6.1-1.03,8.85-2.11,3.53-1.38,6.87-3.37,9.91-5.91,3.2-2.68,5.6-5.72,7.15-9.03,1.54-3.32,2.33-7.01,2.33-10.99,0-3.14-.58-6.03-1.71-8.58-.89-1.99-2.14-3.86-3.74-5.58-1.89,1.55-3.89,2.95-5.98,4.19l9.13,5.19-1.83,2.21c-3.39,4.1-6.49,8.42-9.21,12.86s-5.16,9.11-7.25,13.89l-.6,1.37-6.83.24-.21,2.26Zm33.99-8.59c-.86,0-1.5.26-2.08.86-.59.61-.85,1.24-.85,2.06,0,.89.26,1.54.83,2.13.58.59,1.22.85,2.09.85s1.52-.26,2.09-.85.83-1.24.83-2.13c0-.82-.26-1.45-.85-2.06-.57-.59-1.21-.86-2.08-.86Zm-33.27.78c1.63-4.44,3.56-8.89,5.76-13.25,2.58-5.1,5.59-10.22,8.96-15.23l1.02-1.52c-.87.5-1.75.98-2.64,1.42-3.34,1.66-6.99,2.96-10.85,3.85l-2.25,24.71Zm38.71-13.25c-.69,0-1.22.13-1.43.35-.22.23-.34.72-.34,1.4s.12,1.21.32,1.41c.22.22.75.35,1.46.35,1.01,0,1.33-.25,1.41-.32.07-.08.32-.4.32-1.43,0-.68-.12-1.2-.34-1.43-.19-.2-.71-.33-1.38-.33Zm-35.35-23.81c1.63-.69,3.12-1.45,4.45-2.28,1.83-1.14,3.38-2.4,4.61-3.78l-2.35-27.85c-.3-.18-.72-.4-1.32-.65-.53-.22-1.14-.45-1.84-.68l-3.57,35.23Z"/>
        <path class="cls-3" d="m234.12,356.21c0,5.29-1.03,9.97-3.09,14.03-2.06,4.07-5.13,7.52-9.22,10.36-3.51,2.45-7.51,4.28-11.99,5.48-4.48,1.21-9.47,1.81-14.97,1.81-3.52,0-7.23-.23-11.13-.7-3.9-.47-7.97-1.22-12.22-2.27l-4.07-98.93c1.84-.19,3.65-.35,5.43-.47s3.49-.17,5.14-.17c4.73,0,9.12.44,13.16,1.31s7.75,2.2,11.11,3.99c4.27,2.25,7.47,5.03,9.59,8.33,2.12,3.3,3.18,7.12,3.18,11.47,0,1.91-.23,3.84-.69,5.81-.46,1.97-1.17,3.94-2.12,5.92,6.53,2.84,11.81,7.41,15.84,13.72,4.03,6.31,6.04,13.08,6.04,20.31Zm-20.11-9.42c0-3.5-.64-6.69-1.92-9.56-1.28-2.88-3.21-5.48-5.77-7.81-3.06,2.76-6.43,5.06-10.1,6.89-3.67,1.83-7.67,3.17-12,4.03l-3.38,37.08c4.4-.16,8.49-.97,12.28-2.45,3.79-1.48,7.31-3.58,10.56-6.3,3.48-2.91,6.07-6.2,7.78-9.85,1.7-3.66,2.55-7.66,2.55-12.01Zm-15.01-22.1l-2.52-29.9c-.54-.54-1.42-1.08-2.66-1.6-1.24-.52-2.84-1.04-4.78-1.54l-4.24,41.86c3.21-1.05,6.01-2.31,8.39-3.79,2.39-1.48,4.32-3.15,5.81-5.02Zm6.73,18c-3.48,4.2-6.61,8.58-9.4,13.13s-5.26,9.28-7.4,14.18l-3.39.12c1.76-5.14,3.91-10.22,6.46-15.26,2.54-5.04,5.48-10.03,8.81-14.97l4.93,2.8Zm4.12,35.39c0-1.36-.34-2.39-1.03-3.09s-1.72-1.05-3.09-1.05-2.35.35-3.04,1.05-1.03,1.73-1.03,3.09.34,2.45,1.03,3.15,1.7,1.05,3.04,1.05,2.41-.35,3.09-1.05,1.03-1.75,1.03-3.15Zm12.83-8.92c0-1.44-.51-2.68-1.52-3.73-1.01-1.05-2.26-1.57-3.75-1.57s-2.74.52-3.75,1.57c-1.01,1.05-1.52,2.29-1.52,3.73,0,1.52.51,2.79,1.52,3.82,1.01,1.03,2.26,1.54,3.75,1.54s2.74-.51,3.75-1.54c1.01-1.03,1.52-2.3,1.52-3.82Zm4.24-13.64c0-1.36-.33-2.39-1-3.09-.67-.7-1.69-1.05-3.06-1.05s-2.41.35-3.09,1.05-1.03,1.73-1.03,3.09.34,2.44,1.03,3.12c.69.68,1.72,1.02,3.09,1.02s2.4-.34,3.06-1.02,1-1.72,1-3.12Z"/>
        <path class="cls-3" d="m244.77,388.54l3.45-65.46h-.16s.78-11.97.78-11.97l8.53.65.18-1.3h-8.69l.49-11.83,8.75.67.12-.58-8.81-.44.83-15.45,2.4.2c3.78.31,7.57.61,11.39.9,3.79.29,7.63.55,11.42.78h.13c4.65.57,8.86,1.39,12.51,2.45,3.74,1.09,7,2.48,9.68,4.13,3.6,2.19,6.55,5.02,8.78,8.41,2.21,3.36,3.76,7.32,4.62,11.77l.41,2.15-14.01,4.1-.22-2.93c-.28-3.76-1.06-6.89-2.33-9.28-1.21-2.28-2.85-3.92-5.03-5.03-.81-.4-2.58-1.04-6.23-1.74-2.56-.49-5.75-.91-9.5-1.26l-2.53,22.08,5.13-10.91,14.94-3.7-2.4,21.54-17.96-4.47-1.01,8.83,30.32-1.63-9.67,22.06-22.75-4.94-4.46,33.72,17.58.24,7.44-11.05,15.56-.9.36,23.65-60.08-3.46Zm11.56-65.17l.04-.18-4.5-.06,4.46.24Z"/>
        <path class="cls-3" d="m308.87,311.93l-9.17,2.68c-.31-4.12-1.17-7.53-2.61-10.23-1.43-2.7-3.45-4.71-6.04-6.03-1.41-.7-3.69-1.35-6.85-1.95-3.15-.6-7.15-1.1-12-1.49l-4.41,38.48,29.27-1.57-7.33,16.73-23.37-5.07-5.16,38.94,21.48.29,7.5-11.14,11.97-.7.29,18.6-55.22-3.18,3.21-60.85,7.68.41,1.26-5.01-8.82-.12.46-7.05,8.36.64.86-6.24h-8.94l.29-6.88,8.36.64,1.15-5.36-9.22-.47.57-10.61c3.78.31,7.58.61,11.4.9,3.82.29,7.64.55,11.46.79,4.54.54,8.59,1.33,12.14,2.36,3.55,1.03,6.59,2.32,9.11,3.88,3.32,2.02,6,4.59,8.05,7.7,2.04,3.11,3.47,6.74,4.27,10.9Zm-19.76-3.85l-1.72,15.45-13.35-3.32,4.47-9.5,10.6-2.62Z"/>
        <path class="cls-3" d="m315.91,388.54l3.45-65.46h-.16s.78-11.97.78-11.97l8.53.65.18-1.3h-8.69l.49-11.83,8.75.67.12-.58-8.81-.44.83-15.45,2.4.2c3.78.31,7.57.61,11.39.9,3.79.29,7.63.55,11.42.78h.13c4.65.57,8.86,1.39,12.51,2.45,3.74,1.09,7,2.48,9.68,4.13,3.6,2.19,6.55,5.02,8.78,8.41,2.21,3.36,3.76,7.32,4.62,11.77l.41,2.15-14.01,4.1-.22-2.93c-.28-3.76-1.06-6.89-2.33-9.28-1.21-2.28-2.85-3.92-5.03-5.03-.81-.4-2.58-1.04-6.23-1.74-2.56-.49-5.75-.91-9.5-1.26l-2.53,22.08,5.13-10.91,14.94-3.7-2.4,21.54-17.96-4.47-1.01,8.83,30.32-1.63-9.67,22.06-22.75-4.94-4.46,33.72,17.58.24,7.44-11.05,15.56-.9.36,23.65-60.08-3.46Zm11.56-65.17l.04-.18-4.5-.06,4.46.24Z"/>
        <path class="cls-3" d="m380.02,311.93l-9.17,2.68c-.31-4.12-1.17-7.53-2.61-10.23-1.43-2.7-3.45-4.71-6.04-6.03-1.41-.7-3.69-1.35-6.85-1.95-3.15-.6-7.15-1.1-12-1.49l-4.41,38.48,29.27-1.57-7.33,16.73-23.37-5.07-5.16,38.94,21.48.29,7.5-11.14,11.97-.7.29,18.6-55.22-3.18,3.21-60.85,7.68.41,1.26-5.01-8.82-.12.46-7.05,8.36.64.86-6.24h-8.94l.29-6.88,8.36.64,1.15-5.36-9.22-.47.57-10.61c3.78.31,7.58.61,11.4.9,3.82.29,7.64.55,11.46.79,4.54.54,8.59,1.33,12.14,2.36,3.55,1.03,6.59,2.32,9.11,3.88,3.32,2.02,6,4.59,8.05,7.7,2.04,3.11,3.47,6.74,4.27,10.9Zm-19.76-3.85l-1.72,15.45-13.35-3.32,4.47-9.5,10.6-2.62Z"/>
        <path class="cls-3" d="m387.09,283.07l10.54-.21.29,7.68,6.53.53,1.08-7.09,10.35.73-.78,8.08,4.14,1.03,3.68-7.85,9.27,4.44-3.42,6.97c1.16.62,2.23,1.33,3.19,2.12.93.77,1.79,1.6,2.57,2.49l5.52-3.95,6.98,7.96-8,5.39c.33,1.15.57,2.38.71,3.69.15,1.45.17,3,.06,4.63l8.95,3.23-4.35,9.5-6.73-2.53c-.33.87-.73,1.74-1.18,2.6-.54,1.03-1.17,2.06-1.87,3.08l5.56,5.02-6.23,8.31-5.4-4.13,16.04,26c.55.85,1.22,1.72,1.99,2.55.75.82,1.63,1.6,2.61,2.32,1.1.81,2.15,1.42,3.12,1.81.88.35,1.72.53,2.49.53,1.11,0,2.15-.31,3.21-.95,1.17-.71,2.35-1.81,3.51-3.26l1.13-1.42,5.88,2.66-1,2.2c-1.83,4.04-4.07,7.12-6.65,9.16-2.7,2.14-5.79,3.22-9.18,3.22-3.63,0-7.29-1.23-10.9-3.66-3.43-2.31-6.91-5.79-10.34-10.33l-18.35-24.43-3.84,1.09-1.96,36.99-15.14,2.57-4.09-108.74Zm21.9,57.45c2.43-.81,4.68-1.77,6.71-2.88,2.43-1.33,4.6-2.88,6.45-4.63l-6.27-28.54c-.77-.29-1.6-.56-2.49-.82-.62-.18-1.29-.34-1.99-.49l-2.42,37.36Z"/>
        <path class="cls-3" d="m465.4,376.21c-1.68,3.7-3.67,6.46-5.96,8.27s-4.87,2.72-7.74,2.72c-3.17,0-6.37-1.09-9.6-3.26-3.23-2.18-6.49-5.44-9.77-9.79l-19.32-25.71-6.99,1.98-1.95,36.79-10.65,1.81-3.9-103.6,5.85-.12.29,7.46,10.78.87,1.09-7.11,5.79.41-.74,7.7,7.97,1.98,3.5-7.46,4.99,2.39-3.44,7c1.87.74,3.51,1.68,4.9,2.83,1.39,1.15,2.59,2.44,3.58,3.88l5.62-4.02,3.78,4.31-7.28,4.9c.61,1.44,1.01,3.07,1.2,4.9.19,1.83.15,3.83-.11,6l8.25,2.97-2.35,5.13-6.99-2.62c-.38,1.52-.97,3.04-1.78,4.58-.8,1.54-1.8,3.04-2.98,4.52l5.56,5.01-3.49,4.66-6.24-4.78-2.92,1.63,18.27,29.62c.65,1.01,1.4,1.98,2.26,2.91s1.84,1.81,2.95,2.62c1.26.93,2.47,1.63,3.64,2.1,1.16.47,2.28.7,3.35.7,1.53,0,3-.43,4.41-1.29,1.41-.86,2.79-2.13,4.12-3.81l2.06.93Zm-40.67-42.41l-6.83-31.07c-1.15-.5-2.44-.96-3.87-1.37s-3.03-.75-4.79-1.02l-2.81,43.43c3.86-1.01,7.32-2.35,10.38-4.02,3.06-1.67,5.7-3.65,7.92-5.95Z"/>
      </g>
      <g id="_TM_" data-name="&amp;lt;TM&amp;gt;">
        <path class="cls-4" d="m411.41,108.57l-.14,1.01-1.91.15-.14,1.16,2.05.06-.39,1.37-1.82-.12-.72,5.32-1.4.25-.18-5.75-1.72-.13s.23-1.14.29-1.09c-.06-.05,1.41.03,1.41.03,0,0-.11-.96-.05-.91-.07-.05-2.2-.19-1.82.15-.38-.33-2.04-2.9-.41-1.5-1.63-1.4,1.59-.48,2.18,0-.59-.48-4.09-6.19-.1-3.36-4-2.82,1.96-1.38,3.51-.41-1.55-.98-.52,3.77-.52,3.77,0,0,1.87,0,1.87,0Zm-2.48-1.54c-.57-.66-1.12-1.2-.2-.59-1.18-.86-1.91-1.31-.59-.2-1.82-1.11-2.24-1.21-.59.2-1.9-1.16-1.55-.67-.2.59-1.36-.75-.73-.13.2.6-.67-.47-.11-.13.59.2-.18-.33.12-.32.59-.2-.21-.38-.37-.74.2-.6Zm-.34,2.38c0-.21-.09-.4-.15-.47-.14-.13-.38-.25-.45-.15-.34-.1-.54-.08-.47.15-.27-.03-.23.2-.15.47-.08.14.04.35.15.46.09.09.26.15.47.15s.35-.05.45-.15.15-.25.15-.46Z"/>
        <path class="cls-4" d="m426.89,116.75l-3.89.45.08-4.86c.01-.69-.06-1.21-.2-1.56s-.37-.52-.67-.52c-.18,0-.37.11-.56.34-.19.23-.39.57-.59,1.03-.14.31-.26.62-.36.94-.1.32-.19.63-.26.96-.03-.27-.06-.54-.1-.82s-.07-.55-.1-.82c-.06-.34-.13-.64-.21-.89-.09-.25-.19-.47-.31-.64-.16-.23-.35-.4-.58-.51-.23-.12-.5-.17-.8-.17-.44,0-.83.17-1.18.51-.35.34-.65.85-.91,1.54l.1,5.13-3.44-.25,1.16-9.35,1.99.32.1,1.98c.38-.49.78-.86,1.21-1.11.42-.25.87-.37,1.33-.37.44,0,.83.09,1.18.26.35.17.64.44.88.79.36-.39.72-.69,1.08-.88.36-.2.72-.29,1.09-.29.41,0,.78.11,1.13.33.34.22.66.55.94.99.22.33.4.7.56,1.1.16.41.29.85.4,1.32l-1.21.35.14.75,1.24-.26.1.83-1.21.2.17.83,1.28-.21.15.84-1.36.07.12.88,1.36-.14.19.92Zm-5.27-1.43c0,.35-.12.65-.36.9-.24.24-.54.37-.89.37s-.65-.12-.89-.37c-.25-.24-.37-.54-.37-.9s.12-.65.37-.9c.24-.24.54-.36.89-.36s.65.12.89.36c.24.24.36.54.36.9Z"/>
      </g>
    </g>
    <path id="Icon_awesome-crown" data-name="Icon awesome-crown" class="cls-4" d="m136.7,132.91h-60.78c-1.3.02-2.35,1.15-2.34,2.52v5.05c-.01,1.38,1.03,2.5,2.34,2.52h60.78c1.3-.02,2.35-1.15,2.34-2.52v-5.05c.01-1.38-1.03-2.5-2.34-2.52Zm9.35-50.46c-3.96.09-7.1,3.55-7.01,7.72.02,1.03.24,2.04.64,2.97l-10.58,6.84c-2.17,1.4-5.01.68-6.34-1.62-.04-.07-.08-.14-.12-.21l-11.91-22.49c1.64-1.44,2.59-3.58,2.59-5.83.09-4.09-2.98-7.48-6.85-7.57-3.87-.09-7.09,3.14-7.17,7.23,0,.11,0,.23,0,.34,0,2.25.95,4.39,2.59,5.83l-11.91,22.49c-1.22,2.36-4.02,3.23-6.26,1.95-.07-.04-.13-.08-.2-.12l-10.56-6.84c.42-.98.64-2.05.64-3.12.04-4.13-3.1-7.52-7.01-7.57-3.96.09-7.11,3.55-7.02,7.73.08,4.05,3.17,7.31,7.01,7.4.38,0,.75-.05,1.13-.13l10.56,30.4h56.11l10.56-30.4c.37.07.75.12,1.13.13,3.96-.13,7.07-3.63,6.94-7.81-.12-3.99-3.16-7.2-6.94-7.33h0Z"/>
  </g>
</svg>