<?xml version="1.0" encoding="iso-8859-1"?>
<!-- Uploaded to: SVG Repo, www.svgrepo.com, Generator: SVG Repo Mixer Tools -->
<svg fill="#000000"  version="1.1" id="Layer_1" xmlns="http://www.w3.org/2000/svg" xmlns:xlink="http://www.w3.org/1999/xlink" 
width= '150' height='150'	 viewBox="0 0 289.104 289.104" xml:space="preserve">
 <defs>
    <style>
      .cls-1 {
        fill: #3fe6ff;
        stroke-width: 0px;
        transition: fill 0.3s ease; /* Add transition for smooth color change */
      }

      .cls-1:hover {
        fill: #ffcc00; /* Change the color to yellow when hovered */
      }
	   </style>
  </defs>
<g>
	<g>
		<g>
			<path d="M81.35,132.208c4.308,1.396,8.868,2.524,13.552,3.364l0.4-2.236c-4.584-0.816-9.04-1.924-13.252-3.284L81.35,132.208z"/>
			<path d="M260.014,172.624c-0.556-0.508-13.704-12.48-29.868-11.644c-16.18,0.712-28.788,13.672-29.32,14.224l-0.68,0.712
				c-7.868,1.284-15.88,0.812-22.36-3.388c1.716-2.824,3.04-5.796,3.424-9.004c0.504-4.232-0.268-10.424-5.828-9.764
				c-0.748,0.088-1.168,0.636-1.292,1.228c-0.192,0.164-0.356,0.376-0.432,0.696c-1.24,5.336-1.552,10.22-1.176,14.856
				c-0.124,0.288-0.116,0.608,0.064,0.912c0.1,0.992,0.232,1.968,0.396,2.94c-1.756,2.492-3.616,4.916-5.404,7.38
				c-0.288,0.144-2.004,1.012-4.596,2.556c6.608-26.664,10.524-53.548,10.524-68.936c0-1.124-0.068-2.228-0.116-3.34
				c0.204-0.752,0.328-1.516,0.328-2.3c0-11.552-23.036-20.26-53.58-20.26c-0.072,0-0.14,0.004-0.212,0.004L113.642,0l-11.656,0.808
				l5.868,84.016c0.008,0.432,0.02,0.864,0.028,1.296l0.064,0.016l0.268,3.84c-22.516,1.78-43.016,8.576-43.016,19.776
				c0,0.824,0.112,1.624,0.324,2.396c-0.044,1.076-0.112,2.148-0.112,3.24c0,6.048,0.608,13.876,1.74,22.76
				c-5.776-6.724-13.404-12.124-22.6-10.988c-11.524,1.428-17.312,11.856-16.452,22.808c0.948,12.064,9.048,21.268,17.712,28.872
				c11.784,10.348,24.172,20.072,36.84,29.316c7.624,23.848,17.292,44.348,28.032,51.912c-0.228,2.68-0.416,4.456-0.52,4.952
				c-0.94,2.78-3.352,3.416-7.536,4.292c-1.552,0.324-3.152,0.66-4.784,1.2c-9.576,1.68-14.232,4.192-14.232,7.676
				c0,7.372,22.52,9.34,35.828,9.34c12.908,0,34.428-1.868,35.704-8.712c1.308,1.556,2.836,3.052,4.628,4.464
				c4.92,3.872,10.052,5.824,15.26,5.824c0.404,0,0.808-0.012,1.212-0.036c7.4-0.42,15.464-5.148,20.076-11.752
				c0.992-1.424,1.8-2.94,2.476-4.496c1.324,1.172,2.736,2.264,4.276,3.208c5.208,3.192,11.584,4.872,17.668,4.872
				c3.416,0,6.748-0.532,9.716-1.628c6.268-2.308,11.372-7.044,15.164-14.072c3.184-5.896,6.172-14.744,2.344-23.4
				c-3.268-7.388-12.98-14.444-23.652-13.584c-2.92,0.248-5.676,1.224-7.552,2.676l-0.316,0.34
				c-0.732,1.104-1.376,2.036-2.196,2.776l-0.444,0.328c-0.428,0.316-1.076,0.688-1.76,1.056
				c-9.92-8.38-17.148-21.584-23.492-32.224c-5.664-9.5-10.676-18.196-12.584-27.884c0.168-0.236,0.344-0.472,0.508-0.712
				c7.352,4.672,16.484,5.088,25.372,3.456c3.2,2.652,14.176,10.856,27.504,10.856c0.468,0,0.936-0.008,1.412-0.032
				c16.18-0.712,28.792-13.668,29.324-14.22l1.004-1.044L260.014,172.624z M176.698,253.344c0.012-0.568,0.008-1.14,0.016-1.708
				c1.032,0.04,2.02,0.016,2.588-0.128c1.444-0.368,3.428-1.264,4.816-2.496c0.12-0.024,0.24-0.02,0.36-0.04
				c0.124,0.188,0.232,0.38,0.276,0.584c0.172,0.788-0.128,1.864-0.824,2.94c-1.4,2.176-3.948,3.844-6.816,4.46
				c-5.176,1.112-10.328-1.312-10.784-3.436c-0.264-1.224,1-2.736,3.136-3.996c0.084,0.016,0.18,0.008,0.26,0.024
				c1.176,0.76,2.288,1.412,3.66,1.744l0.496,0.12c-0.012,0.644-0.008,1.288-0.02,1.932
				C173.826,255.168,176.662,255.168,176.698,253.344z M169.278,209.148l-7.412-12.204l5.636-11.28
				C168.578,189.596,170.494,198.576,169.278,209.148z M138.57,243.576l4.46-8.928l6.016,11.088c-2.236,2.028-4.472,3.864-6.616,5.5
				L138.57,243.576z M141.506,251.928c-4.34,3.228-8.192,5.6-10.596,6.976l7.028-14.064L141.506,251.928z M143.654,233.404
				l5.352-10.712l8.656,13.932c-2.432,3.04-5.072,5.812-7.752,8.312L143.654,233.404z M149.598,221.5l5.716-11.44l9.028,16.188
				c-0.044,0.088-0.076,0.176-0.12,0.264c-1.632,3.268-3.624,6.324-5.816,9.168L149.598,221.5z M155.926,208.832l5.34-10.692
				l7.776,12.804c-0.664,4.52-1.948,9.276-4.116,14.02L155.926,208.832z M166.202,185.728l-36.592,73.244
				c-1.644-5.992-5.276-23.724,3.28-40.852C141.37,201.132,159.454,189.588,166.202,185.728z M169.682,109.752
				c0,0.12-0.048,0.244-0.056,0.364c-6.552-7.84-25.528-13.224-49.22-13.244l-0.236-3.38
				C149.79,93.504,169.682,101.908,169.682,109.752z M120.686,114.56l0.932-0.392l-1.052-15.032
				c23.68,0.048,43.472,5.86,48.196,13.572c-4.228,6.864-22.72,13.296-48.66,13.296c-25.852,0-44.912-6.364-49.7-13.044
				c3.956-6.516,19.32-11.812,38.48-13.356l1.076,15.356l1.056,0.216c1.436,0.296,2.812,0.444,4.12,0.444
				C117.154,115.62,119.01,115.268,120.686,114.56z M118.646,112.292c-1.756,0.532-3.764,0.64-6.012,0.296l-1.328-19.024
				l6.128,1.392L118.646,112.292z M117.266,92.612l-6.128-1.392l-0.308-4.436l6.128,1.396L117.266,92.612z M116.798,85.844
				l-6.128-1.392l-2-28.656l6.124,1.388L116.798,85.844z M105.006,3.436l6-0.416l0.452,6.476l-6.128-1.392L105.006,3.436z
				 M105.498,10.448l6.128,1.392l0.336,4.832l-6.128-1.392L105.498,10.448z M105.998,17.616l6.128,1.392l2.004,28.66l-6.128-1.392
				L105.998,17.616z M108.162,48.62l6.128,1.392l0.336,4.836l-6.128-1.392L108.162,48.62z M108.49,93.968l0.236,3.376
				c-19.036,1.484-33.968,6.564-39.38,13.292c-0.06-0.296-0.148-0.588-0.148-0.884C69.198,103.104,84.866,95.824,108.49,93.968z
				 M43.25,171.1c-7.74-7.844-14.632-20.24-9.632-31.324c8-17.736,27.044-4.844,34.332,5.992c0.092,0.136,0.212,0.212,0.32,0.316
				c0.208,1.364,0.852,6.78,1.08,8.176c-3.272-4.336-17.616-19.952-25.568-15.372c-4.644,2.676-6.14,8.56-5.408,12.684
				c0.788,4.424,3.284,9.08,7.848,14.636c6.6,8.044,23.368,18.888,30.892,22.76c1.124,4.32,2.316,8.608,3.572,12.832
				C67.75,192.356,54.454,182.456,43.25,171.1z M70.45,160.812c1.716,9.668,3.324,14.98,5.896,25.168
				c-7.9-4.38-22.536-14.1-28.368-21.204c-4.304-5.248-6.644-9.572-7.364-13.596c-0.588-3.3,0.848-7.912,4.392-10.376
				C49.49,137.688,66.99,153.312,70.45,160.812z M85.066,202.5c-8.34-27.444-13.528-56.868-15.124-76.084
				c1.052,0.98,2.216,1.884,3.6,2.592l1.032-2.024c-2.176-1.108-3.804-2.624-4.908-4.364c-0.08-1.296-0.144-2.54-0.184-3.712
				c0.048,0.028-0.016-0.42-0.128-1.092c8.78,7.96,30.236,12.196,50.752,12.196c22.724,0,41.272-4.824,49.288-12.048
				c-0.056,0.592-0.068,0.988,0.008,0.944c-0.044,1.268-0.12,2.636-0.212,4.048c-8.824,15.604-56.108,13.08-69.288,11.38
				l-0.288,2.248c0.264,0.036,10.64,1.204,23.508,1.204c16.544,0,37.188-1.944,45.756-10.708
				c-1.356,15.7-5.052,37.948-10.852,60.368c-8.6,5.788-20.888,15.82-27.672,29.408c-7.888,15.796-6.04,31.708-4.248,39.796
				c-2.284,1.648-4.516,2.572-6.664,2.572C108.71,259.22,95.858,238.016,85.066,202.5z M119.442,283.532
				c-19.716,0-31.044-3.488-31.844-5.24c0.224-0.544,2.744-2.416,11.08-3.864l0.292-0.076c1.464-0.492,3-0.812,4.484-1.124
				c4.316-0.908,8.784-1.844,10.5-6.928c0.028-0.076,0.184-1.628,0.408-4.176c1.672,0.688,3.368,1.092,5.08,1.092
				c1.692,0,3.36-0.392,5.008-1.072c0.268,2.536,0.448,4.072,0.476,4.156c1.712,5.084,6.176,6.02,10.488,6.924
				c1.488,0.312,3.028,0.636,4.788,1.204c8.336,1.448,10.856,3.32,11.08,3.664C150.482,280.044,139.15,283.532,119.442,283.532z
				 M141.178,270.568c-1.688-0.572-3.34-0.916-4.94-1.252c-4.176-0.876-6.584-1.508-7.488-4.164
				c-0.072-0.328-0.164-0.96-0.268-1.744l1.076-0.536c1.072-0.532,26.272-13.224,37.204-35.092
				c9.928-19.88,4.452-39.956,3.052-44.336c0.872-1.188,1.788-2.384,2.736-3.6c1.244,22.864,1.684,45.744,1.36,68.64l-0.284-0.064
				c-0.848-0.284-1.64-0.776-2.564-1.376l-0.42-0.192c-1.992-0.5-4.416-0.332-6.82,0.476c-8.552,2.908-13.7,11.728-13.74,18.58
				c-0.016,2.696,0.616,5.324,1.792,7.844C149.526,272.448,145.974,271.388,141.178,270.568z M193.99,275.696
				c-4.136,5.932-11.332,10.172-17.912,10.552c-4.86,0.292-9.812-1.46-14.56-5.188c-3.944-3.108-8.644-8.256-8.604-15.136
				c0.032-5.736,4.556-13.444,11.816-15.908c0.948-0.324,1.888-0.484,2.788-0.548c-1.72,1.352-2.608,2.876-2.304,4.296
				c0.524,2.408,4.608,4.608,9.212,4.608c0.96,0,1.944-0.092,2.924-0.304c3.152-0.68,5.968-2.536,7.528-4.956
				c0.872-1.348,1.22-2.696,0.98-3.796c-0.036-0.168-0.156-0.308-0.224-0.464c1.36-0.072,2.7,0.092,3.952,0.46
				c-0.384,2.052-0.472,4.24-0.168,6.56c0.712,5.412,3.288,10.568,7.152,14.776C195.918,272.4,195.098,274.112,193.99,275.696z
				 M224.55,231.048c9.312-0.848,18.02,5.568,20.816,11.908c3.368,7.604,0.636,15.568-2.244,20.908
				c-3.456,6.4-8.052,10.692-13.652,12.756c-7.48,2.752-17.488,1.552-24.92-3c-6.76-4.14-11.364-10.912-12.312-18.112
				c-0.4-3.02-0.308-7.396,2.368-11.08c1.52-2.1,3.908-3.748,6.592-4.7c-0.024,0.304-0.096,0.612-0.036,0.904
				c0.256,1.284,1.264,2.568,2.832,3.608c2.08,1.38,4.736,2.112,7.48,2.112c1.02,0,2.052-0.1,3.068-0.308
				c6.736-1.356,11.86-6.928,11.172-10.372c-0.36-1.8-2.224-3.12-5.072-3.704C221.806,231.5,223.134,231.168,224.55,231.048z
				 M215.214,241.252c1.548,0.976,2.972-1.476,1.432-2.448c-0.736-0.464-1.416-1.04-2.128-1.56c0.232-0.14,0.5-0.292,0.688-0.42
				l0.316-0.188c1.328-1.008,2.228-2.244,3.152-3.628c0.052-0.036,0.12-0.068,0.172-0.104c3.196,0.312,5.436,1.404,5.756,2.992
				c0.512,2.584-3.984,7.768-10.288,9.044c-3.464,0.704-7.092,0.088-9.692-1.64c-1.296-0.86-2.156-1.916-2.352-2.888
				c-0.068-0.336-0.036-0.688,0.064-1.048c0.172-0.044,0.328-0.124,0.5-0.16c2.064,0.688,4.66,0.728,6.416,0.444
				c0.592-0.096,1.532-0.476,2.508-0.932C212.89,239.6,214.018,240.496,215.214,241.252z M184.902,202.588
				c6.536,11.152,14.152,24.976,24.392,34.092c-0.176,0.06-0.4,0.156-0.5,0.172c-1.496,0.244-3.796,0.168-5.336-0.436l-0.392-0.156
				l-0.412,0.084c-4.24,0.86-8.008,3.2-10.348,6.424c-0.84,1.156-1.444,2.456-1.944,3.82c-2.276-0.66-4.768-0.792-7.22-0.268
				l-0.408,0.088l-0.296,0.296c-0.952,0.956-2.648,1.76-3.836,2.06c-0.268,0.068-1.024,0.072-1.864,0.036
				c0.312-21.6-0.076-43.188-1.16-64.76C177.862,190.188,181.154,196.192,184.902,202.588z M176.05,169.568
				c-0.212,0.376-0.456,0.724-0.68,1.092c-0.016-0.012-0.032-0.024-0.048-0.036c-0.38-4.384-0.116-9.008,1.036-14.032
				C181.178,157.2,176.926,168.008,176.05,169.568z M249.466,168.86l-3.824,4.828l-5.932,0.26l5.384-7.156
				C246.658,167.444,248.13,168.136,249.466,168.86z M244.018,166.34l-5.768,7.672l-7.26,0.32l6.7-9.828
				C239.918,164.956,242.038,165.576,244.018,166.34z M230.274,163.804c2.128-0.076,4.184,0.144,6.192,0.48l-6.892,10.112
				l-7.764,0.34l8.024-10.876C229.982,163.852,230.126,163.812,230.274,163.804z M228.282,164.052L220.35,174.8l-7.236,0.32
				l6.036-8.7C221.978,165.268,225.046,164.42,228.282,164.052z M217.226,167.204l-5.536,7.98l-7.012,0.308
				C207.002,173.432,211.454,169.884,217.226,167.204z M230.634,186.036c-11.756,0.4-21.988-6.344-25.98-9.412l51.58-2.268
				C252.342,177.8,242.39,185.516,230.634,186.036z M247.15,173.62l3.336-4.216c2.516,1.432,4.46,2.804,5.776,3.816L247.15,173.62z"
				/>
		</g>
	</g>
</g>
</svg>