<?xml version="1.0" encoding="UTF-8"?>
<svg id="Death" data-name="Death" xmlns="http://www.w3.org/2000/svg" height='600' width='600' viewBox="0 0 879.78 849.12">
  <defs>
    <style>
     cls-1 {
        fill: #3fe6ff;
        stroke-width: 0px;
        transition: fill 0.3s ease; 
      }

      .cls-1:hover {
        fill: #ffcc00; 
    </style>
       <script>
console.log('JavaScript is running!');



const vectorGraphic = document.querySelector('#Death');

function logThisId() {
    console.log(this);
    console.log('its connected now!:', this.id);
}

vectorGraphic.addEventListener('click', logThisId);
</script>
  </defs>
  <g id="Death" data-name="Death">
    <path id="Death" data-name="Death" class="cls-1" d="m457.54,848.98c-2.25-5.41-3.8-26.26-3.13-40.77,1.24-26.35,2.25-41,3.15-47.7,1.44-10.28,6.46-34.36,7.38-35.46,1.35-1.66.9-46.22-.54-54.95-.7-4.28-1.42-19.74-1.55-34.38-.29-27.32-1.19-33.37-6.14-41.07-2.48-3.85-2.77-6.37-2.25-18.96.4-7.04.15-14.09-.77-21.08-4.5-21.56-7.79-45.94-7.32-56.22s.97-11.86,4.64-16.04c6.86-7.81,14.65-23.22,19.4-38.59,5.09-16.35,8.73-28.49,10.33-34.4,2.55-8.61,5.88-16.96,9.95-24.96,5.11-10.37,5.6-25.52.83-25.52-.67,0-3.11,2.02-5.42,4.49s-10.71,7.96-18.66,12.21c-18.84,10.08-26.33,15.57-28.5,20.86s-2.25,11.99-.36,12.87c.77.35,2.9,3.98,4.75,8.09,3.65,8.01,4.22,17.07,1.62,25.48-.88,2.94-2.25,9.07-3.29,13.65s-2.25,10.71-2.81,13.63c-.46,2.64-1.67,5.09-3.49,7.07-2.25,1.66-2.57,1.51-4.61-.88-1.63-2.37-2.73-5.05-3.24-7.88-.56-2.89-3.67-11.79-6.93-19.79-7.38-18.08-7.92-26.79-2.25-34.83,1.79-2.25,3.07-4.86,3.76-7.65,0-3.96-4.95-8.82-16.68-16.4-15.76-10.25-19.42-13.14-23.03-18.74-3.85-5.97-6.89-6.73-10.22-2.55-4.01,4.98-5.85,15.11-6.75,36.49l-.77,20.22,4.5,3.73c7.23,6.14,27.17,27.28,31.02,32.89,7.67,11.18,9.77,19.39,9.93,39.08s2.14,37.73,4.5,40.98c.81,1.09,1.15,2.24.77,2.52s.92,3.47,2.9,7.08c2.32,4.7,3.89,9.74,4.64,14.93.84,5.82,2.13,11.57,3.85,17.2,5.02,15.86,6.23,23.35,5.38,33.4-.45,5.42-1.19,18.36-1.64,28.73-2.95,69.26-4.16,96.2-4.5,101.52-.27,3.32-.88,19.09-1.35,34.95-.81,27.03-2.93,45.39-5.45,47.52-1.44,1.21-18.16-8.14-28.18-15.74-8.44-6.42-9-7.94-6.37-16.5,1.58-4.98,5.09-30.33,7.5-54.1.81-7.93,1.82-17.41,2.25-21.08,1.87-15.54,3.74-33.75,5.88-57.68,1.26-14.03,2.99-27.27,3.87-29.41s2-16.4,2.54-31.7l.97-27.81-5.09-7.13c-3.87-5.44-10.96-11.51-29.76-25.44-13.51-10.07-26.65-20.4-29.06-22.97l-4.39-4.66,1.69-18.08c2.45-26.06,2.48-80.55,0-97.95l-2-14.43-7.38-7.5c-13.19-13.4-13.05-12.85-14-55.18-.23-10.07-.86-19.07-1.42-20-1.87-3.1-6.86-4.41-19.22-5.06-19.94-1.03-24.76-3.15-53.68-24.13-13.84-9.95-27.77-19.9-30.95-21.88-6.32-4.01-6.28-3.32-1.26-15.97l3.04-7.71-3.8-4.98c-1.76-2.41-3.71-4.66-5.83-6.75-2.99-2.5-12.38-18.06-13.51-22.37-.83-2.35-.04-4.97,1.96-6.47,5.02-4.74,7.65-9.42,10.02-17.8,5.24-18.56,17.42-43.27,23.86-48.46,7.16-5.75,17.33-1.66,21.18,8.29,3.02,7.94,3.08,16.24.23,30.77-1.21,6.08-1.96,12.24-2.25,18.43,0,6.63.43,7.78,5.06,12.26,7.5,7.25,17.4,12.29,34.21,17.45,3.72,1.13,7.29,2.72,10.62,4.73,25.14,17.78,41.91,26.84,51.66,27.95,11.66,1.33,18.01,7.53,22.51,22.21,2.95,9.37,9,18.48,12.29,18.48,2.6-.38,5.13-1.16,7.5-2.3,4.5-2.02,5.06-2.87,5.06-6.93-.6-9.98-2.11-19.88-4.5-29.59-.86-2.92-1.56-5.88-2.09-8.87-.34-2.14-1.37-6.38-2.25-9.44-5.74-18.51-8.22-25.64-9.23-26.54-3.49-3.32-9.18-16.92-11.1-26.4-3.69-18.43-9-23.6-29.06-28.84-10.61-2.82-20.74-7.22-30.03-13.07-2.59-1.66-9-5.34-14.29-8.39s-9.93-5.86-10.35-6.24c-1.94-1.24-3.97-2.34-6.05-3.32-14.05-7-19.9-11.61-25.34-19.9l-5.49-8.29-.5-21.56-.5-21.56,15.56-10.86c8.89-6.22,19.09-12.19,23.84-13.98,7.45-2.8,10.02-3.14,25.59-3.32,19.2-.31,22.78,0,26.24,2.59s3.06,10.61-.65,14.1c-1.28,1.04-2.32,2.35-3.02,3.85,0,.96-5.88,8.14-12.2,14.93-2.33,3.49-4.12,7.3-5.33,11.31,46.01,22.21,48.51,6.25,31.67,48.1l25.57,4.18c7-14.36,14.56-28.63,19.38-43.49.65-12.65-27.01-6.95-34.66-14.4-5.24-9.83,7.05-23.52,13.64-31.84,3.6-3.88,14.9-7.8,19.85-6.88,1.98.36,9.36-.58,16.59-2.12,5.6-1.29,11.27-2.22,16.99-2.78,4.55-.36,9.07-1.08,13.51-2.14,8.22-1.84,10.13-1.94,14.29-.66,4.3,1.09,8.68,1.84,13.1,2.26,4.62.45,9.17,1.51,13.51,3.17,3.63,1.56,7.4,2.76,11.25,3.6,5.65,1.13,6.75.94,15.87-2.77l9.79-3.98,24.17-.65c23.5-.66,24.33-.78,34.35-4.45l10.31-3.85,5.54,2.37c3.96,1.66,7.07,4.53,10.92,9.95,5.31,7.48,5.36,7.6,3.08,12.22-1.98,4.05-2,5.47-.22,10.6,1.22,3.43,2.8,6.71,4.73,9.8,1.41,2,2.41,4.25,2.95,6.63.7,7.18,0,8.79-5.42,11.48-4.88,2.44-15.76,13.12-15.76,15.49-.58,1.76-1.39,3.43-2.41,4.98-11.25,19.09-15.22,22.49-32.1,28.2-20.71,6.97-27.68,8.61-36.49,8.61-6.98,0-9,.42-10.22,2.09-2.76,2.47-5.86,4.54-9.21,6.15-3.87,1.83-7.25,4.54-9.86,7.93-1.27,2.19-3.25,3.89-5.6,4.83-2,.59-3.87,1.55-5.52,2.84-5.08,3.28-10.34,6.26-15.76,8.92-7.5,3.88-15.46,8.29-17.71,9.95-1.61,1.25-3.42,2.2-5.36,2.82-1.77.56-3.41,1.5-4.79,2.74-2.95,2.3-3.35,3.5-2.57,7.63.71,3.36,1.79,6.63,3.2,9.75,2.97,6.3,2.95,13.04,0,17.53s-2,11.03,3.04,15.9c4.5,4.36,4.86,7.56,1.6,14.66-1.68,4.74-2.49,9.75-2.39,14.78,0,8.09.5,10.42,3.29,13.9s4.1,4.11,7.29,3.85c4.5-.38,5.18-1.74,10.6-20.1,4.91-16.58,8.35-19.77,30.97-28.33,6.62-2.5,16.79-6.63,22.51-9.02s15.28-6.12,21.09-8.14c13.38-4.31,25.13-10.96,34.26-19.35,16-14.58,22.51-26.9,28.92-55.23.91-4.79,3.14-9.23,6.44-12.82,3.09-3.47,5.32-7.63,6.5-12.12,2.25-8.79,6.41-15.06,12.56-19.09,10.58-6.93,13.51-1.81,10.33,18.03-1.03,6.4-2.48,17.13-3.24,23.85l-1.37,12.2,10.02,6.78,10.02,6.78.25,13.97c.14,7.68,1.06,15.81,2.07,18.06l1.85,4.1-14.47,10.42c-19.22,13.82-28.99,23.1-37.72,35.84-3.06,4.59-6.35,9.01-9.86,13.27-4.91,5.16-14.54,21.56-19.72,33.6l-5.15,11.98-15.76,10.76c-8.62,5.92-18.01,12.02-20.64,13.55-6.86,3.85-9.59,8.54-9.59,16.58-.2,4.3,1.06,8.54,3.58,12.04,1.77,2.55,3.34,5.23,4.7,8.01.84,1.82,2.04,3.45,3.54,4.79,3.15,2.64,4.32,26.74,1.87,38.51-1.53,7.43-8.17,19.9-10.58,19.9-4.03,0-9.14,15.38-11.41,34.4-.4,3.32-1.4,9.85-2.25,14.43s-2.25,16.58-3.04,26.62c-1.73,20.27-.43,31.13,4.5,38.4,7.68,11.1,1.17,21.05-24.76,37.88l-9,5.79.16,8.61c.13,5,.99,9.96,2.57,14.71,10.38,26.53,10.65,28.05,9.86,61.58-1.04,43.78-.58,66.79,1.42,73.22,1.11,3.8,1.92,7.68,2.43,11.61.54,4.12,1.36,8.2,2.43,12.21,1.06,3.75,1.76,18.24,1.78,37.72v31.61l-4.07,4.36c-6.1,6.48-34.01,22.46-34.86,20.38l.25.05Zm66.47-74.82c-.41-.5-.74-11.39-.74-24.2,0-23.32-2-45.68-5.09-57.14-.9-3.32-1.82-16.09-2.03-28.29-.34-19.79-3.15-40.42-5.94-43.75-1.49-1.78-6.75-29.29-6.75-35.33,0-7.02,2.25-9.95,11.88-15.14,9.63-5.19,10.94-5.21,12.34-1.19.63,1.82,3.26,9.32,5.85,16.59,8.85,25.08,9.32,26.98,9.12,36.06-.22,9.59-.29,10.17-3.92,29.41-2.25,11.73-2.63,20.55-2.25,47.15.38,32.18-1.44,59.26-4.5,68.45-1.6,4.61-6.3,9.09-7.72,7.35l-.25.05Zm-159.81-62.33c-1.73-5.87-3.03-11.85-3.89-17.9-.86-6.05-2.17-12.04-3.89-17.9-1.17-3.49-1.92-7.1-2.25-10.76-.7-5.29-1.7-10.54-2.99-15.72-2.25-7.94-7.54-32.09-7.7-34.95,0-1.23-.77-6.72-1.58-12.21-1.51-10.3-1.89-45.89-.5-46.92,2.25-1.66,14.92,4.58,25.5,12.32l11.88,8.71-1.01,10.73c-.56,5.9-1.35,16.97-1.76,24.6s-1.1,16.37-1.51,19.42-1.36,15.53-2.1,27.74c-1.78,28.88-4.37,51.9-5.96,53.07-.35.25-.78.36-1.21.31-.41-.03-.79-.22-1.04-.54h.02Zm-196.23-442.15c47.43,21.21,40.15,23.47,64.13,29.29,29.26,7.11,42.47,11.83,52.11,27.98-98.27,59.94-155.33,95.96-172.66,117.52-69.78,86.24-13.5,168.49,141.24,144.64-31.92,48.48-175.57,47.48-222.12-8.13-55.55-66.26-49.72-196.2,137.3-311.24v-.07Zm474.45,296.88c127.53,11.41,185.29-62.59,104.75-147.99,0,0-60.48-48.66-144.68-112.78,6.75-25.62,21.36-53.27,68.81-89.26,200.78,105.33,207.08,234.86,208.11,247.72,9.68,117.16-177.14,151.23-236.99,102.34v-.03Z"/>
  </g>
</svg>