<?xml version="1.0" encoding="UTF-8"?>
<svg id="Football" data-name="Football" xmlns="http://www.w3.org/2000/svg" viewBox="0 0 405.42 391.91">
  <defs>
    <style>
      
        @keyframes bounce {
          0%, 20%, 50%, 80%, 100% {
            transform: translateY(0);
          }
          40% {
            transform: translateY(-20px);
          }
          60% {
            transform: translateY(-10px);
          }
        }

        #Football:hover {
          animation: bounce 2s infinite;
        }
      
    </style>
    <script>
console.log('JavaScript is running!');



const vectorGraphic = document.querySelector('#Football');

function logThisId() {
    console.log(this);
    console.log('its connected now!:', this.id);
}

vectorGraphic.addEventListener('click', logThisId);
</script>
  </defs>
  
  <g id="Football" data-name="Football">
    <path id="Icon_ionic-ios-football" data-name="Icon ionic-ios-football" class="cls-1" d="m202.71,0C90.73,0,0,87.71,0,195.96s90.93,195.96,202.71,195.96,202.71-87.71,202.71-195.96c0-108.06-90.93-195.96-202.71-195.96Zm124.06,76.03c8.19,7.88,15.57,16.56,22.02,25.91.7.95.85,2.21.39,3.30l-14.03,38.91c-.36.97-1.1,1.75-2.05,2.17l-56.04,24.68c-1.36.58-2.94.36-4.09-.57l-55.16-44.84c-.86-.72-1.36-1.79-1.36-2.92v-59.45c.02-1.27.68-2.44,1.75-3.11l37.42-24.59c1.01-.67,2.26-.84,3.41-.47,25.36,8.42,48.5,22.43,67.73,40.98Zm-72.02,280.37c-.41,1.13-1.36,1.99-2.53,2.26-16.11,4.54-32.77,6.82-49.51,6.78-16.73,0-33.39-2.28-49.51-6.78-1.14-.34-2.07-1.17-2.53-2.26l-15.98-40.51c-.38-1.02-.31-2.15.2-3.11l21.73-39.85c.7-1.22,2-1.97,3.41-1.98h85.28c1.41-.02,2.72.74,3.41,1.98l21.73,39.85c.5.96.57,2.09.20,3.11l-15.89,40.51ZM189.07,63.4v59.45c0,1.13-.5,2.2-1.36,2.92l-55.26,44.75c-1.16.93-2.73,1.14-4.09.57l-56.04-24.68c-.95-.41-1.69-1.19-2.05-2.17l-14.03-38.81c-.42-1.1-.27-2.33.39-3.3,6.46-9.35,13.83-18.03,22.03-25.91,19.21-18.58,42.41-32.54,67.83-40.79,1.15-.37,2.41-.2,3.41.47l37.42,24.59c1.11.54,1.8,1.68,1.75,2.92ZM28.94,203.59l35.18-29.39c1.17-.97,2.8-1.19,4.19-.57l51.07,22.42c1.07.47,1.86,1.41,2.14,2.54l14.23,53.98c.2.92.1,1.88-.29,2.73l-22.61,41.36c-.7,1.27-2.06,2.04-3.51,1.98l-44.83-.57c-1.21-.02-2.35-.57-3.12-1.51-19.94-25.94-31.71-57.23-33.82-89.87-.02-1.19.48-2.32,1.36-3.11Zm263.53,92.98l-22.51-41.26c-.48-.83-.59-1.82-.29-2.73l14.23-53.98c.29-1.13,1.08-2.07,2.14-2.54l51.07-22.42c1.4-.58,3-.36,4.19.57l35.18,29.39c.92.76,1.43,1.91,1.36,3.11-2.08,32.66-13.86,63.95-33.82,89.88-.74.97-1.9,1.53-3.12,1.51l-44.93.57c-1.44-.06-2.76-.84-3.51-2.07h0Z"/>
  </g>
</svg>
