<svg width="800px" height="800px" viewBox="0 0 1024 1024" class="icon" version="1.1" xmlns="http://www.w3.org/2000/svg">
    <style>
        .rotate {
            transform-origin: center center;
            transition: transform 0.5s ease-in-out;
        }

        .rotate:hover {
            transform: rotate(360deg);
        }
    </style>
    <g class="rotate">
        <!-- The rest of your SVG path elements here -->
        <path d="M448.43 264.45q87.12 0 157.75-78.84-70.63-78.84-157.75-78.84t-157.75 78.84q70.63 78.84 157.75 78.84z" fill="#89D66D" />
        <path d="M452.43 284.93c-63.88 0-122.09-28.82-173-85.65l-12.24-13.67 12.24-13.67c50.92-56.84 109.12-85.65 173-85.65s122.09 28.82 173 85.65l12.24 13.67-12.24 13.67c-50.91 56.84-109.12 85.65-173 85.65zM323 185.61c17.84 17.55 36.49 31.25 55.63 40.81a164.13 164.13 0 0 0 147.69 0c19.14-9.57 37.79-23.26 55.63-40.81-17.84-17.55-36.49-31.25-55.63-40.81a164.14 164.14 0 0 0-147.69 0c-19.18 9.57-37.84 23.26-55.63 40.81z" fill="" />
        <path d="M430.87 169.9h151.55a11.26 11.26 0 0 1 11.26 11.26v8.19a11.26 11.26 0 0 1-11.26 11.26H430.87a11.26 11.26 0 0 1-11.26-11.26v-8.19a11.26 11.26 0 0 1 11.26-11.26z" fill="#015200" />
        <path d="M310.52 871a19.91 19.91 0 0 1-10-2.68C249.7 839 213.27 808.13 189.17 774a20 20 0 1 1 32.66-23c20.69 29.27 53 56.32 98.71 82.71a20 20 0 0 1-10 37.33z" fill="" />
    </g>
</svg>
