<?xml version="1.0" encoding="UTF-8"?>
<svg id="Layer_2" data-name="Layer 2" xmlns="http://www.w3.org/2000/svg" viewBox="0 0 444.89 459.78">
  <defs>
    <style>
      .cls-1 {
        fill: #3fe6ff;
        stroke-width: 0px;
      }
    </style>
  </defs>
  <g id="Layer_1-2" data-name="Layer 1">
    <path id="Icon_awesome-snowman" data-name="Icon awesome-snowman" class="cls-1" d="m443.92,136.83l-5.13-13.02c-2.9-7.2-10.96-10.69-18.08-7.81l-24.5,10.32v-26.03c-.05-7.76-6.27-14.02-13.9-14h-13.9c-7.63-.02-13.85,6.24-13.9,14v42.1c0,.45.26.9.26,1.35l-49.01,20.65c-5.1-8.93-11.56-16.99-19.12-23.88,12.33-15.33,19.09-34.51,19.12-54.31C305.75,38.61,268.38,0,222.33,0s-83.42,38.6-83.42,86.19c.07,19.8,6.82,38.97,19.12,54.31-7.54,6.92-13.98,14.97-19.12,23.88l-49.01-20.65c.13-.44.22-.89.26-1.35v-42.1c.09-7.64-5.93-13.91-13.45-14-.1,0-.19,0-.29,0h-13.9c-7.63-.02-13.85,6.24-13.9,14v26.03l-24.42-10.32c-7.11-2.87-15.17.61-18.08,7.81l-5.13,13.02c-2.83,7.16.57,15.29,7.61,18.17.04.02.08.03.12.05l117.49,49.56c-.53,3.63-.88,7.29-1.04,10.95.1,8.77,1.32,17.49,3.65,25.94-52.07,54.02-51.22,140.75,1.9,193.7,6.46,6.44,13.54,12.2,21.13,17.19,8.18,5.06,17.63,7.62,27.2,7.36h86.21c11.58-.01,22.88-3.68,32.33-10.5,60.82-43.86,75.17-129.56,32.04-191.42-4.08-5.85-8.6-11.37-13.53-16.5,2.33-8.39,3.55-17.05,3.65-25.77,0-3.77-.69-7.27-1.04-10.95l117.49-49.56c7.08-2.87,10.54-11.02,7.73-18.22Zm-249.31-50.55c-7.8.12-14.22-6.21-14.34-14.14-.12-7.93,6.1-14.46,13.9-14.59s14.22,6.21,14.34,14.14c0,.07,0,.15,0,.22.04,7.86-6.17,14.28-13.9,14.37Zm27.81,244.2c-7.8.12-14.22-6.21-14.34-14.14-.12-7.93,6.1-14.46,13.9-14.59s14.22,6.21,14.34,14.14c0,.07,0,.15,0,.22.04,7.86-6.17,14.28-13.9,14.37h0Zm0-57.46c-7.8.12-14.22-6.21-14.34-14.14-.12-7.93,6.1-14.46,13.9-14.59s14.22,6.21,14.34,14.14c0,.07,0,.15,0,.22.04,7.86-6.17,14.29-13.9,14.37h0Zm0-57.46c-7.8.12-14.22-6.21-14.34-14.14-.12-7.93,6.1-14.46,13.9-14.59s14.22,6.21,14.34,14.14c0,.07,0,.15,0,.22.04,7.87-6.17,14.29-13.9,14.38h0Zm0-79.01s-13.9-20.83-13.9-28.73c-.09-7.81,6.06-14.22,13.74-14.31,7.68-.09,13.98,6.16,14.07,13.97,0,.11,0,.22,0,.34,0,7.92-13.91,28.75-13.91,28.75v-.02Zm27.81-50.28c-7.8.12-14.22-6.21-14.34-14.14-.12-7.93,6.1-14.46,13.9-14.59,7.8-.12,14.22,6.21,14.34,14.14,0,.07,0,.15,0,.22.05,7.87-6.17,14.3-13.9,14.39v-.02Z"/>
  </g>
</svg>