<?xml version="1.0" encoding="UTF-8"?>
<svg id="star" data-name="star" xmlns="http://www.w3.org/2000/svg" viewBox="0 0 299.83 285.63">
  <defs>
    <style>
      .cls-1, .cls-2 {
        stroke-width: 0px;
      }

      .cls-2 {
        fill: #f93;
      }
       .cls-1:hover {
        fill: #ffcc00;
      }
    </style>
    <script>
console.log('JavaScript is running!');



const vectorGraphic = document.querySelector('#star');

function logThisId() {
    console.log(this);
    console.log('its connected now!:', this.id);
}

vectorGraphic.addEventListener('click', logThisId);
</script>
  </defs>
  <g id="star" data-name="star">
    <g>
      <g>
        <polygon class="cls-2" points="149.27 235.88 57.03 283.77 75.12 181.43 1.07 108.51 104 94.09 150.47 1.13 195.99 94.56 298.75 110.03 223.96 182.19 241.01 284.71 149.27 235.88"/>
        <path class="cls-1" d="m150.46,2.26l44.96,92.28.23.47.52.08,101.51,15.28-73.87,71.28-.38.37.09.52,16.83,101.26-90.61-48.23-.46-.25-.47.24-91.1,47.3,17.87-101.08.09-.52-.37-.37L2.15,108.86l101.66-14.24.52-.07.24-.47L150.46,2.26m.01-2.26l-46.81,93.63L0,108.15l74.58,73.45-18.22,103.08,92.9-48.24,92.4,49.18-17.17-103.26,75.33-72.68-103.51-15.58L150.47,0h0Z"/>
      </g>
      <g>
        <polygon class="cls-1" points="117.33 174.08 83.95 142.33 129.45 135.16 149.33 93.61 170.22 134.66 215.88 140.73 183.29 173.28 191.63 218.58 150.6 197.64 110.09 219.57 117.33 174.08"/>
        <path class="cls-1" d="m149.35,94.74l20.31,39.92.24.47.52.07,44.39,5.9-31.69,31.65-.37.37.1.52,8.11,44.04-39.89-20.36-.47-.24-.46.25-39.38,21.32,7.03-44.23.08-.52-.38-.36-32.45-30.87,44.24-6.98.52-.08.23-.47,19.33-40.4m-.03-2.26l-20.2,42.23-46.24,7.29,33.92,32.26-7.35,46.23,41.17-22.29,41.7,21.28-8.47-46.04,33.12-33.08-46.4-6.17-21.23-41.72h0Z"/>
      </g>
    </g>
  </g>
</svg>